<?xml version="1.0" encoding="UTF-8" ?>
<svg
	id="uuid-e5ccd182-79ef-4da5-82fd-15fbe76c0f59"
	data-name="Calque 1"
	xmlns="http://www.w3.org/2000/svg"
	viewBox="0 0 620.33 620.33"
>
	<defs>
		<style>
			.uuid-75d0bebb-0b28-4ced-9abd-5769eafb85d3 {
        fill: #edb2c8;
      }

      .uuid-184abe43-1b53-4eaf-ac29-a262d766bfeb {
        fill: #e8e8e8;
      }

      .uuid-0d441087-99dd-4041-8fa1-2ac87bb1bc8a {
        fill: #dbb12a;
      }

      .uuid-0226f376-c062-49ac-98e3-e4209947a69a {
        fill: #a37708;
      }
		</style>
	</defs>
	<g>
		<path
			class="uuid-0d441087-99dd-4041-8fa1-2ac87bb1bc8a"
			d="M346.2,495.71l-33.97-48.76c-3.77,1.89-7.99,2.94-12.44,2.94-15.9,0-28.79-13.46-28.79-30.06,0-8.02,3.02-15.31,7.92-20.7l-99.37-142.63h0l-33.24-47.7h0l-50.5-72.49c-4.38-6.28-14.23-3.18-14.23,4.47v33.18c19.93,.52,35.93,16.82,35.93,36.88s-16,36.36-35.93,36.88v46.3c11.06,3.71,19.04,14.15,19.04,26.46s-7.98,22.75-19.04,26.46v153.24c0,4.32,3.5,7.82,7.82,7.82h39.99c5.25-8.69,14.78-14.5,25.67-14.5s20.42,5.81,25.67,14.5h34.4c0-23.9,19.38-43.28,43.28-43.28s43.28,19.38,43.28,43.28h38.09c6.32,0,10.03-7.1,6.42-12.29Z"
		/>
		<circle class="uuid-0226f376-c062-49ac-98e3-e4209947a69a" cx="142.76" cy="262.08" r="22.92" />
		<circle class="uuid-0226f376-c062-49ac-98e3-e4209947a69a" cx="119.72" cy="426.54" r="28.79" />
		<circle class="uuid-0226f376-c062-49ac-98e3-e4209947a69a" cx="205.99" cy="372.13" r="34.34" />
	</g>
	<g>
		<path
			class="uuid-75d0bebb-0b28-4ced-9abd-5769eafb85d3"
			d="M403.74,349.72c1.04-.94,2.97-.7,3.38,.58,7.66,23.88,20.93,48.37,62.68,72.69,62.11,36.17,105.96,7.3,108.91-37.47,2.21-33.52-7.33-64.88-22.71-83.32-1.55-1.85,1.23-4.1,3.09-2.5,5.36,4.58,11.81,11.85,18.55,23.39,17.28,29.6,20.26,63.73,9.97,88.53-11.44,27.58-31.69,49.29-86.53,40.76-39.79-6.19-65.96-32.61-72.23-38.32-29.15-26.54-42.17-23.37-52.08-26.42-8.45-2.6,19.16-30.85,26.97-37.91Z"
		/>
		<path
			class="uuid-184abe43-1b53-4eaf-ac29-a262d766bfeb"
			d="M391.94,420.63c.33-16.34,21.19-38.11,19.49-64.43-1.7-26.32-74.16-93.2-78.81-107.13-4.65-13.92-3.51-26.73-7.51-41.54-4-14.81-6.14-17.67-6.14-17.67,71.54-13.98,1.6-106.28-38.12-46.12,0,0-33.51-21.88-78.01-23.05-3.4,15.17,8.19,63.31,42.8,81.42,0,0-.72,2.65-.52,8.84,.75,23.27-8.58,40.28-16.21,47.39-7.78,7.25-34.5,1.02-34.5,1.02,0,0-5.9-3.05-7.39-7.11-1.48-4.06-5.5-15.64-13.24-13.08,0,0,2.8,1.18,3.79,4.33,0,0-4.15-2.47-9.13-.49,0,0,5.7,2.58,6.64,4.85,0,0-4.69-1.68-7.06,.55,0,0,7.97,2.49,10.83,8.51,2.45,5.17,1.58,9.07,5.2,11.74,3.62,2.67,12.58,6.88,14.73,6.72,2.14-.17,32.18-.12,45.18,2.12,2.69,.46,5.58-.06,8.47-1.17,1.05,5.76,2.86,11.66,6.03,17.66,10.94,20.64,21.59,26.23,49.32,60.64,27.73,34.42,42.99,69.27,54.14,78.09,2.38,1.88,5.48,4.14,8.92,6.49,2.62,2.04,5.44,4.43,6.77,6.18,4.39,5.79,10.67,18.28,6.94,27.48-7.17,17.66-12.82,21.13-12.82,21.13,0,0-6.53,2.1-11.94,1.03-4.24-.84-15.83-4.92-18.4,2.82,0,0,2.62-1.54,5.73-.46,0,0-4.46,1.86-5.84,7.03,0,0,5.47-3.04,7.86-2.43,0,0-4.15,2.76-3.77,5.99,0,0,6.75-4.91,13.29-3.61,5.61,1.11,8.22,4.14,12.52,2.83,4.3-1.31,13.33-5.84,14.18-7.81,5.08-11.92,9.23-17.04,12.95-21.71,2.65-3.32,8.53-5.15,10.49-11.15,1.04-3.19-1.29-5.78-6.65-17.45-3.28-8.18-10.35-21.96-10.22-28.46Z"
		/>
		<circle cx="241.84" cy="147.1" r="9.75" />
		<circle class="uuid-75d0bebb-0b28-4ced-9abd-5769eafb85d3" cx="207.12" cy="125.48" r="7.47" />
		<path
			class="uuid-75d0bebb-0b28-4ced-9abd-5769eafb85d3"
			d="M290.32,150.7c10.84,7.34,19.58,20.28,23.78,29.03,49.84-5.77,3.85-74.14-23.78-29.03Z"
		/>
	</g>
</svg>
