<?xml version="1.0" encoding="UTF-8"?>
<svg id="uuid-040688ea-19be-493d-9d47-127a1d15abe7" data-name="Calque 1" xmlns="http://www.w3.org/2000/svg" viewBox="0 0 620.33 620.33">
  <defs>
    <style>
      .uuid-ef77af3c-7550-493c-9a1a-26ef84db2359 {
        fill: #dbb12a;
      }

      .uuid-128f942f-6231-45ed-b611-0bbbf0528cf4 {
        fill: #a37708;
      }
    </style>
  </defs>
  <path class="uuid-ef77af3c-7550-493c-9a1a-26ef84db2359" d="M530.41,600.01l-56.19-80.65c-6.23,3.12-13.21,4.87-20.58,4.87-26.3,0-47.62-22.26-47.62-49.72,0-13.27,4.99-25.32,13.1-34.23L254.76,204.37h0l-54.97-78.91h0L116.25,5.56c-7.24-10.39-23.54-5.27-23.54,7.39v54.88c32.96,.86,59.43,27.82,59.43,60.99s-26.46,60.14-59.43,60.99v76.58c18.3,6.13,31.49,23.41,31.49,43.77s-13.19,37.64-31.49,43.77v253.46c0,7.14,5.79,12.93,12.93,12.93h66.15c8.68-14.37,24.45-23.98,42.46-23.98s33.78,9.61,42.46,23.98h56.91c0-39.54,32.05-71.59,71.59-71.59s71.59,32.05,71.59,71.59h63c10.45,0,16.58-11.75,10.61-20.33Z"/>
  <circle class="uuid-128f942f-6231-45ed-b611-0bbbf0528cf4" cx="193.93" cy="213.58" r="37.91"/>
  <circle class="uuid-128f942f-6231-45ed-b611-0bbbf0528cf4" cx="155.81" cy="485.61" r="47.62"/>
  <circle class="uuid-128f942f-6231-45ed-b611-0bbbf0528cf4" cx="298.5" cy="395.6" r="56.79"/>
</svg>