<?xml version="1.0" encoding="utf-8" ?>
<!-- Generator: Adobe Illustrator 28.0.0, SVG Export Plug-In . SVG Version: 6.00 Build 0)  -->
<svg
	version="1.1"
	id="artwork"
	xmlns="http://www.w3.org/2000/svg"
	xmlns:xlink="http://www.w3.org/1999/xlink"
	x="0px"
	y="0px"
	viewBox="0 0 135 40"
	style="enable-background:new 0 0 135 40;"
	xml:space="preserve"
>
<style type="text/css">
.st0 {
	fill: #a6a6a6;
}

.st1 {
	fill: url(#path239_00000047746614636201183640000018331607829526146974_);
	stroke: url(#path239_00000179648483265206841950000003103594549086267014_);
	stroke-width: 0.394;
	stroke-miterlimit: 11.3386;
}
.st2 {
	fill: #ffffff;
}
	</style>
<g>
		<path
			d="M130,40H5c-2.75,0-5-2.25-5-5V5c0-2.75,2.25-5,5-5h125c2.75,0,5,2.25,5,5v30C135,37.75,132.75,40,130,40z"
		/>
	</g>
<g>
		<g>
			<path
				class="st0"
				d="M130,0.8c2.32,0,4.2,1.88,4.2,4.2v30c0,2.32-1.88,4.2-4.2,4.2H5c-2.32,0-4.2-1.88-4.2-4.2V5
			c0-2.32,1.88-4.2,4.2-4.2H130 M130,0H5C2.25,0,0,2.25,0,5v30c0,2.75,2.25,5,5,5h125c2.75,0,5-2.25,5-5V5C135,2.25,132.75,0,130,0
			L130,0z"
			/>
		</g>
	</g>
<g id="layer1" transform="translate(-30.394373,-54.680428)">
		<linearGradient
			id="path239_00000154390256273551585260000001874964292487364277_"
			gradientUnits="userSpaceOnUse"
			x1="-511.2604"
			y1="469.2671"
			x2="-505.49"
			y2="462.6151"
			gradientTransform="matrix(2.8346 0 0 -2.8346 1494.47 1394.3994)"
		>
			<stop offset="0" style="stop-color:#9B58DC" />
			<stop offset="1" style="stop-color:#321C92" />
		</linearGradient>

		<linearGradient
			id="path239_00000000192814971398022940000006367516055545291943_"
			gradientUnits="userSpaceOnUse"
			x1="-511.3661"
			y1="469.3889"
			x2="-505.3887"
			y2="462.4983"
			gradientTransform="matrix(2.8346 0 0 -2.8346 1494.47 1394.3994)"
		>
			<stop offset="0" style="stop-color:#9B58DC" />
			<stop offset="1" style="stop-color:#321C92" />
		</linearGradient>

		<path
			id="path239"
			style="fill:url(#path239_00000154390256273551585260000001874964292487364277_);stroke:url(#path239_00000000192814971398022940000006367516055545291943_);stroke-width:0.394;stroke-miterlimit:11.3386;"
			d="
		M56.68,87.33c-0.35-0.19-2.42-1.33-12.08-6.69c-2.69-1.49-5.28-2.93-5.75-3.19c-1.08-0.59-1.25-0.74-1.25-1.1
		c0-0.19,0.43-1.39,1.44-4.01c0.79-2.06,1.49-3.86,1.56-4.01c0.15-0.33,0.38-0.62,0.61-0.73c0.22-0.11,5.59-2.07,5.86-2.14
		c0.3-0.07,0.55,0.07,0.7,0.39c0.07,0.15,0.37,0.94,0.67,1.75c0.29,0.81,0.73,2.01,0.98,2.66c0.55,1.5,0.57,1.71,0.19,1.94
		c-0.1,0.06-0.77,0.32-1.48,0.58c-0.71,0.26-1.39,0.53-1.51,0.59c-0.27,0.16-0.31,0.4-0.1,0.6c0.08,0.08,1.45,0.86,3.03,1.73
		c4.43,2.44,4.18,2.33,4.48,2.01c0.14-0.16,2.79-6.88,2.94-7.48c0.06-0.26,0.06-0.29-0.08-0.4c-0.19-0.15-0.16-0.16-1.9,0.46
		c-1.72,0.61-1.89,0.62-2.12,0.17c-0.12-0.24-1.98-5.33-2.09-5.74c-0.07-0.27,0.02-0.52,0.24-0.66c0.09-0.06,1.44-0.58,3-1.15
		c2.31-0.85,2.9-1.04,3.2-1.05c0.39-0.01,0.44,0.02,7.55,3.95c0.49,0.27,0.76,0.56,0.76,0.82c0,0.11-1.76,4.78-3.92,10.39
		c-3.04,7.91-3.96,10.24-4.09,10.35C57.3,87.57,57.12,87.56,56.68,87.33L56.68,87.33z"
		/>
	</g>
<g>
		<path
			class="st2"
			d="M45.44,7.85c0.62,0,1.33,0.29,1.72,0.7l0.07,0.08l0.59-0.6l-0.07-0.07c-0.54-0.54-1.46-0.91-2.31-0.91
		c-1.65,0-3.05,1.41-3.05,3.07c0,1.67,1.4,3.08,3.05,3.08c0.84,0,1.76-0.37,2.31-0.91l0.03-0.03V9.87h-2.5v0.82h1.65v1.22
		c-0.41,0.3-0.98,0.49-1.48,0.49c-1.19,0-2.19-1.04-2.19-2.28C43.25,8.89,44.25,7.85,45.44,7.85z"
		/>
		<polygon
			class="st2"
			points="49.03,13.1 53.36,13.1 53.36,12.28 49.89,12.28 49.89,10.48 53.01,10.48 53.01,9.66 49.89,9.66
		49.89,7.96 53.36,7.96 53.36,7.15 49.03,7.15 	"
		/>
		<polygon
			class="st2"
			points="54.16,7.96 56.1,7.96 56.1,13.1 56.95,13.1 56.95,7.96 58.88,7.96 58.88,7.15 54.16,7.15 	"
		/>
		<rect x="62.49" y="7.15" class="st2" width="0.85" height="5.96" />
		<polygon
			class="st2"
			points="64.35,7.96 66.29,7.96 66.29,13.1 67.14,13.1 67.14,7.96 69.07,7.96 69.07,7.15 64.35,7.15 	"
		/>
		<path
			class="st2"
			d="M75.5,7.04c-1.65,0-3.05,1.41-3.05,3.07c0,1.67,1.4,3.08,3.05,3.08c1.65,0,3.04-1.41,3.04-3.08
		C78.54,8.45,77.15,7.04,75.5,7.04z M75.5,12.4c-1.19,0-2.19-1.04-2.19-2.28c0-1.23,1-2.27,2.19-2.27c1.18,0,2.18,1.04,2.18,2.27
		C77.68,11.35,76.68,12.4,75.5,12.4z"
		/>
		<polygon
			class="st2"
			points="83.96,7.15 83.96,11.63 80.57,7.18 80.54,7.15 79.74,7.15 79.74,13.1 80.59,13.1 80.59,8.61
		83.98,13.06 84.01,13.1 84.81,13.1 84.81,7.15 	"
		/>
	</g>
<g>
		<path
			class="st2"
			d="M42.46,23.97c0-3.38,2.84-6.21,6.16-6.21c3.34,0,6.14,2.84,6.14,6.21s-2.8,6.23-6.14,6.23
		C45.3,30.2,42.46,27.35,42.46,23.97z M53.38,23.97c0-2.68-2.17-4.95-4.76-4.95s-4.78,2.28-4.78,4.95c0,2.7,2.19,4.97,4.78,4.97
		S53.38,26.67,53.38,23.97z"
		/>
		<path
			class="st2"
			d="M65.9,25.46c0,2.78-1.79,4.74-4.17,4.74c-1.45,0-2.61-0.72-3.29-1.91v1.7h-1.31V17.76h1.31v4.88
		c0.68-1.19,1.84-1.91,3.29-1.91C64.11,20.73,65.9,22.69,65.9,25.46z M64.51,25.46c0-2.08-1.26-3.55-3.03-3.55
		c-1.79,0-3.05,1.47-3.05,3.55c0,2.08,1.26,3.57,3.05,3.57C63.25,29.03,64.51,27.54,64.51,25.46z"
		/>
		<path
			class="st2"
			d="M72.79,29.63c-0.47,0.37-1.07,0.58-1.68,0.58c-1.29,0-2.21-0.96-2.21-2.31v-5.78h-1.42v-1.17h1.42v-2.49h1.31
		v2.49h2.22v1.17h-2.22v5.78c0,0.67,0.46,1.14,0.98,1.14c0.4,0,0.75-0.16,0.94-0.37L72.79,29.63z"
		/>
		<path
			class="st2"
			d="M81.99,24.48v5.51h-1.31v-1.42c-0.65,1.07-2,1.63-3.19,1.63c-1.91,0-3.31-1.1-3.31-2.89
		c0-1.8,1.61-3.01,3.55-3.01c0.98,0,2.01,0.21,2.94,0.51v-0.33c0-1.23-0.49-2.62-2.45-2.62c-0.91,0-1.82,0.4-2.64,0.82l-0.53-1.07
		c1.29-0.65,2.38-0.88,3.26-0.88C80.79,20.73,81.99,22.29,81.99,24.48z M80.68,27.16v-1.38c-0.82-0.23-1.75-0.37-2.73-0.37
		c-1.35,0-2.49,0.77-2.49,1.85c0,1.12,0.98,1.79,2.26,1.79C78.91,29.05,80.33,28.44,80.68,27.16z"
		/>
		<path
			class="st2"
			d="M84.44,18.42c0-0.46,0.38-0.86,0.88-0.86c0.47,0,0.86,0.4,0.86,0.86c0,0.47-0.38,0.88-0.86,0.88
		C84.83,19.3,84.44,18.9,84.44,18.42z M84.65,20.94h1.31v9.05h-1.31V20.94z"
		/>
		<path
			class="st2"
			d="M96.31,24.23v5.76H95v-5.58c0-1.47-0.93-2.5-2.26-2.5c-1.52,0-2.8,1.07-2.8,2.33v5.76h-1.31v-9.05h1.31v1.45
		c0.53-0.96,1.7-1.66,2.98-1.66C94.91,20.73,96.31,22.19,96.31,24.23z"
		/>
		<path
			class="st2"
			d="M98.74,18.42c0-0.46,0.38-0.86,0.88-0.86c0.47,0,0.86,0.4,0.86,0.86c0,0.47-0.38,0.88-0.86,0.88
		C99.13,19.3,98.74,18.9,98.74,18.42z M98.95,20.94h1.31v9.05h-1.31V20.94z"
		/>
		<path
			class="st2"
			d="M110.59,20.94v9.05h-1.31v-1.45c-0.53,0.96-1.7,1.66-2.98,1.66c-2,0-3.4-1.45-3.4-3.5v-5.76h1.31v5.58
		c0,1.47,0.93,2.5,2.26,2.5c1.52,0,2.8-1.07,2.8-2.33v-5.76H110.59z"
		/>
		<path
			class="st2"
			d="M126.27,24.23v5.76h-1.31v-5.58c0-1.47-0.86-2.5-2.08-2.5c-1.43,0-2.45,0.96-2.45,2.33v5.76h-1.31v-5.58
		c0-1.47-0.86-2.5-2.08-2.5c-1.43,0-2.45,0.96-2.45,2.33v5.76h-1.31v-9.05h1.31v1.33c0.46-0.95,1.44-1.54,2.62-1.54
		c1.37,0,2.43,0.75,2.92,1.92c0.37-1.17,1.56-1.92,2.92-1.92C124.94,20.73,126.27,22.19,126.27,24.23z"
		/>
	</g>
</svg>
