<?xml version="1.0" encoding="utf-8" ?>
<!-- Generator: Adobe Illustrator 28.0.0, SVG Export Plug-In . SVG Version: 6.00 Build 0)  -->
<svg
	version="1.1"
	id="artwork"
	xmlns="http://www.w3.org/2000/svg"
	xmlns:xlink="http://www.w3.org/1999/xlink"
	x="0px"
	y="0px"
	viewBox="0 0 135 40"
	style="enable-background:new 0 0 135 40;"
	xml:space="preserve"
>
<style type="text/css">
.st0 {
	fill: #a6a6a6;
}
.st1 {
	fill: #ffffff;
}
.st2 {
	fill: #ea4335;
}
.st3 {
	fill: #fbbc04;
}
.st4 {
	fill: #4285f4;
}
.st5 {
	fill: #34a853;
}
	</style>
<g>
		<path
			d="M130,40H5c-2.75,0-5-2.25-5-5V5c0-2.75,2.25-5,5-5h125c2.75,0,5,2.25,5,5v30C135,37.75,132.75,40,130,40z"
		/>
	</g>
<g>
		<g>
			<path
				class="st0"
				d="M130,0.8c2.32,0,4.2,1.88,4.2,4.2v30c0,2.32-1.88,4.2-4.2,4.2H5c-2.32,0-4.2-1.88-4.2-4.2V5
			c0-2.32,1.88-4.2,4.2-4.2H130 M130,0H5C2.25,0,0,2.25,0,5v30c0,2.75,2.25,5,5,5h125c2.75,0,5-2.25,5-5V5C135,2.25,132.75,0,130,0
			L130,0z"
			/>
		</g>
	</g>
<path
		class="st1"
		d="M68.14,21.75c-2.35,0-4.27,1.79-4.27,4.25c0,2.45,1.92,4.25,4.27,4.25c2.35,0,4.27-1.8,4.27-4.25
	C72.41,23.54,70.49,21.75,68.14,21.75z M68.14,28.58c-1.29,0-2.4-1.06-2.4-2.58c0-1.53,1.11-2.58,2.4-2.58s2.4,1.05,2.4,2.58
	C70.54,27.52,69.42,28.58,68.14,28.58z M58.82,21.75c-2.35,0-4.27,1.79-4.27,4.25c0,2.45,1.92,4.25,4.27,4.25
	c2.35,0,4.27-1.8,4.27-4.25C63.09,23.54,61.17,21.75,58.82,21.75z M58.82,28.58c-1.29,0-2.4-1.06-2.4-2.58
	c0-1.53,1.11-2.58,2.4-2.58c1.29,0,2.4,1.05,2.4,2.58C61.22,27.52,60.11,28.58,58.82,28.58z M47.74,23.06v1.8h4.32
	c-0.13,1.01-0.47,1.76-0.98,2.27c-0.63,0.63-1.61,1.32-3.33,1.32c-2.66,0-4.74-2.14-4.74-4.8c0-2.66,2.08-4.8,4.74-4.8
	c1.43,0,2.48,0.56,3.25,1.29l1.27-1.27c-1.08-1.03-2.51-1.82-4.53-1.82c-3.64,0-6.7,2.96-6.7,6.61c0,3.64,3.06,6.61,6.7,6.61
	c1.97,0,3.45-0.64,4.61-1.85c1.19-1.19,1.56-2.87,1.56-4.22c0-0.42-0.03-0.81-0.1-1.13H47.74z M93.05,24.46
	c-0.35-0.95-1.43-2.71-3.64-2.71c-2.19,0-4.01,1.72-4.01,4.25c0,2.38,1.8,4.25,4.22,4.25c1.95,0,3.08-1.19,3.54-1.88l-1.45-0.97
	c-0.48,0.71-1.14,1.18-2.09,1.18c-0.95,0-1.63-0.43-2.06-1.29l5.69-2.35L93.05,24.46z M87.25,25.88c-0.05-1.64,1.27-2.48,2.22-2.48
	c0.74,0,1.37,0.37,1.58,0.9L87.25,25.88z M82.63,30h1.87V17.5h-1.87V30z M79.57,22.7H79.5c-0.42-0.5-1.22-0.95-2.24-0.95
	c-2.13,0-4.08,1.87-4.08,4.27c0,2.38,1.95,4.24,4.08,4.24c1.01,0,1.82-0.45,2.24-0.97h0.06v0.61c0,1.63-0.87,2.5-2.27,2.5
	c-1.14,0-1.85-0.82-2.14-1.51l-1.63,0.68c0.47,1.13,1.71,2.51,3.77,2.51c2.19,0,4.04-1.29,4.04-4.43v-7.64h-1.77V22.7z M77.42,28.58
	c-1.29,0-2.37-1.08-2.37-2.56c0-1.5,1.08-2.59,2.37-2.59c1.27,0,2.27,1.1,2.27,2.59C79.7,27.5,78.7,28.58,77.42,28.58z M101.81,17.5
	h-4.47V30h1.87v-4.74h2.61c2.07,0,4.1-1.5,4.1-3.88C105.91,19,103.87,17.5,101.81,17.5z M101.85,23.52H99.2v-4.29h2.65
	c1.4,0,2.19,1.16,2.19,2.14C104.04,22.35,103.25,23.52,101.85,23.52z M113.39,21.73c-1.35,0-2.75,0.6-3.33,1.91l1.66,0.69
	c0.35-0.69,1.01-0.92,1.7-0.92c0.96,0,1.95,0.58,1.96,1.61v0.13c-0.34-0.19-1.06-0.48-1.95-0.48c-1.79,0-3.6,0.98-3.6,2.81
	c0,1.67,1.46,2.75,3.1,2.75c1.25,0,1.95-0.56,2.38-1.22h0.06v0.96h1.8v-4.79C117.18,22.97,115.52,21.73,113.39,21.73z M113.16,28.58
	c-0.61,0-1.46-0.31-1.46-1.06c0-0.96,1.06-1.33,1.98-1.33c0.82,0,1.21,0.18,1.7,0.42C115.24,27.76,114.24,28.58,113.16,28.58z
	 M123.74,22l-2.14,5.42h-0.06L119.32,22h-2.01l3.33,7.58l-1.9,4.21h1.95L125.82,22H123.74z M106.94,30h1.87V17.5h-1.87V30z"
	/>
<g>
		<path
			class="st2"
			d="M20.72,19.42l-10.65,11.3c0,0,0,0,0,0.01c0.33,1.23,1.45,2.13,2.78,2.13c0.53,0,1.03-0.14,1.46-0.4l0.03-0.02
		l11.98-6.91L20.72,19.42z"
		/>
		<path
			class="st3"
			d="M31.49,17.5l-0.01-0.01l-5.17-3l-5.83,5.19l5.85,5.85l5.15-2.97c0.9-0.49,1.51-1.44,1.51-2.53
		C32.99,18.93,32.38,17.99,31.49,17.5z"
		/>
		<path
			class="st4"
			d="M10.07,9.28c-0.06,0.24-0.1,0.48-0.1,0.74v19.97c0,0.26,0.03,0.5,0.1,0.74l11.01-11.01L10.07,9.28z"
		/>
		<path
			class="st5"
			d="M20.8,20l5.51-5.51L14.34,7.55c-0.43-0.26-0.94-0.41-1.49-0.41c-1.33,0-2.45,0.91-2.78,2.13c0,0,0,0,0,0
		L20.8,20z"
		/>
	</g>
<g>
		<path
			class="st1"
			d="M44.09,7.85c0.62,0,1.33,0.29,1.72,0.7l0.07,0.08l0.59-0.6L46.4,7.95c-0.54-0.54-1.46-0.91-2.31-0.91
		c-1.65,0-3.05,1.41-3.05,3.07c0,1.67,1.4,3.08,3.05,3.08c0.84,0,1.76-0.37,2.31-0.91l0.03-0.03V9.87h-2.5v0.82h1.65v1.22
		c-0.41,0.3-0.98,0.49-1.48,0.49c-1.19,0-2.19-1.04-2.19-2.28C41.9,8.89,42.91,7.85,44.09,7.85z"
		/>
		<polygon
			class="st1"
			points="47.68,13.1 52.01,13.1 52.01,12.28 48.54,12.28 48.54,10.48 51.67,10.48 51.67,9.66 48.54,9.66
		48.54,7.96 52.01,7.96 52.01,7.15 47.68,7.15 	"
		/>
		<polygon
			class="st1"
			points="52.82,7.96 54.75,7.96 54.75,13.1 55.6,13.1 55.6,7.96 57.54,7.96 57.54,7.15 52.82,7.15 	"
		/>
		<rect x="61.15" y="7.15" class="st1" width="0.85" height="5.96" />
		<polygon
			class="st1"
			points="63.01,7.96 64.94,7.96 64.94,13.1 65.79,13.1 65.79,7.96 67.73,7.96 67.73,7.15 63.01,7.15 	"
		/>
		<path
			class="st1"
			d="M74.16,7.04c-1.65,0-3.05,1.41-3.05,3.07c0,1.67,1.4,3.08,3.05,3.08c1.65,0,3.04-1.41,3.04-3.08
		C77.2,8.45,75.81,7.04,74.16,7.04z M74.16,12.4c-1.19,0-2.19-1.04-2.19-2.28c0-1.23,1-2.27,2.19-2.27c1.18,0,2.18,1.04,2.18,2.27
		C76.34,11.35,75.34,12.4,74.16,12.4z"
		/>
		<polygon
			class="st1"
			points="82.61,7.15 82.61,11.63 79.22,7.18 79.19,7.15 78.39,7.15 78.39,13.1 79.24,13.1 79.24,8.61
		82.63,13.06 82.66,13.1 83.47,13.1 83.47,7.15 	"
		/>
	</g>
</svg>
